<svg width="156" height="156" viewBox="0 0 156 156" fill="none" xmlns="http://www.w3.org/2000/svg">
<rect width="156" height="156" rx="55" fill="#F3F6FF"/>
<path d="M60.704 113C54.688 113 49.312 112.2 44.576 110.6C39.84 108.936 35.84 106.632 32.576 103.688C29.312 100.68 26.816 97.128 25.088 93.032C23.36 88.936 22.496 84.392 22.496 79.4C22.496 74.408 23.36 69.864 25.088 65.768C26.816 61.672 29.312 58.152 32.576 55.208C35.904 52.2 39.904 49.896 44.576 48.296C49.312 46.632 54.688 45.8 60.704 45.8H70.88V62.024H61.376C58.432 62.024 55.84 62.472 53.6 63.368C51.36 64.264 49.504 65.512 48.032 67.112C46.56 68.648 45.44 70.472 44.672 72.584C43.968 74.696 43.616 76.968 43.616 79.4C43.616 81.832 43.968 84.104 44.672 86.216C45.44 88.328 46.56 90.184 48.032 91.784C49.504 93.32 51.36 94.536 53.6 95.432C55.84 96.328 58.432 96.776 61.376 96.776H70.88V113H60.704ZM78.3448 113V96.776H106.857C107.945 96.776 108.841 96.552 109.545 96.104C110.313 95.656 110.889 95.08 111.273 94.376C111.721 93.608 111.945 92.808 111.945 91.976C111.945 91.08 111.721 90.28 111.273 89.576C110.889 88.808 110.313 88.2 109.545 87.752C108.841 87.304 107.945 87.08 106.857 87.08H98.2168C94.0568 87.08 90.2808 86.28 86.8888 84.68C83.4968 83.08 80.7768 80.776 78.7288 77.768C76.7448 74.696 75.7528 71.016 75.7528 66.728C75.7528 62.504 76.7128 58.824 78.6328 55.688C80.5528 52.552 83.1448 50.12 86.4088 48.392C89.6728 46.664 93.2888 45.8 97.2568 45.8H127.881V62.024H100.041C99.1448 62.024 98.3448 62.216 97.6407 62.6C97.0008 62.984 96.4888 63.496 96.1048 64.136C95.7848 64.776 95.6248 65.48 95.6248 66.248C95.6248 67.016 95.7848 67.72 96.1048 68.36C96.4888 69 97.0008 69.544 97.6407 69.992C98.3448 70.376 99.1448 70.568 100.041 70.568H109.353C113.897 70.568 117.865 71.432 121.257 73.16C124.649 74.824 127.273 77.16 129.129 80.168C130.985 83.176 131.913 86.728 131.913 90.824C131.913 95.496 130.921 99.496 128.937 102.824C127.017 106.152 124.425 108.68 121.161 110.408C117.897 112.136 114.281 113 110.313 113H78.3448Z" fill="#6587FF"/>
<circle cx="61.5" cy="79.5" r="13.5" fill="#6587FF"/>
<rect x="60.6947" y="78" width="10.3824" height="2.59509" rx="1.29755" transform="rotate(40.7721 60.6947 78)" fill="white"/>
<rect x="62" y="71" width="10.1863" height="2.67719" rx="1.3386" transform="rotate(89.7896 62 71)" fill="white"/>
</svg>
